# xmcd
#
# Track frame offsets:
#	150
#	14006
#	24979
#	39207
#	56592
#	78060
#	80529
#	99581
#	114810
#	129907
#	145983
#	163114
#	174389
#	187087
#	204879
#	223831
#	239561
#	242636
#
# Disc length: 3594 seconds
#
# Revision: 1
# Processed by: cddbd v1.5.2PL0 Copyright (c) Steve Scherf et al.
# Submitted via: EZCDAudioConverter 7.0.6.1
#
DISCID=e90e0812
DTITLE=Fuzztones - Snake Oil 1/2
DYEAR=2012
DGENRE=
TTITLE0=You Must Be A Witch [Demo]
TTITLE1=53rd and 3rd
TTITLE2=Face Of Time [Original 45 Version]
TTITLE3=Hey Joe
TTITLE4=Lord, Have Mercy On My Soul
TTITLE5=French Radio Ad 1990
TTITLE6=They're Gonna Take You Away
TTITLE7=Kick Out The Jams [Live]
TTITLE8=Blood From A Stone [Demo]
TTITLE9=Salem Witch Trial
TTITLE10=Out Of Our Tree
TTITLE11=Help, Murder, Police
TTITLE12=My Brother, The Man [Original 45 Version]
TTITLE13=It Ain't Necessarily So
TTITLE14=A Wristwatch Band
TTITLE15=96 Tears [Live Soundcheck]
TTITLE16=Little Steven's Underground Garage Radio Ad
TTITLE17=Gloria [Live - Complete]
EXTD=
EXTT0=
EXTT1=
EXTT2=
EXTT3=
EXTT4=
EXTT5=
EXTT6=
EXTT7=
EXTT8=
EXTT9=
EXTT10=
EXTT11=
EXTT12=
EXTT13=
EXTT14=
EXTT15=
EXTT16=
EXTT17=
PLAYORDER=
